Coordinates
version=1
nRows=4
nColumns=63
inDegrees=yes

Units are S.I. units (second, meters, Newtons, ...)
If the header above contains a line with 'inDegrees', this indicates whether rotational values are in degrees (yes) or radians (no).

endheader
time	pelvis_tilt	pelvis_list	pelvis_rotation	pelvis_tx	pelvis_ty	pelvis_tz	hip_flexion_r	hip_adduction_r	hip_rotation_r	knee_angle_r	knee_angle_r_beta	ankle_angle_r	subtalar_angle_r	mtp_angle_r	hip_flexion_l	hip_adduction_l	hip_rotation_l	knee_angle_l	knee_angle_l_beta	ankle_angle_l	subtalar_angle_l	mtp_angle_l	L5_S1_Flex_Ext	L5_S1_Lat_Bending	L5_S1_axial_rotation	L4_L5_Flex_Ext	L4_L5_Lat_Bending	L4_L5_axial_rotation	L3_L4_Flex_Ext	L3_L4_Lat_Bending	L3_L4_axial_rotation	L2_L3_Flex_Ext	L2_L3_Lat_Bending	L2_L3_axial_rotation	L1_L2_Flex_Ext	L1_L2_Lat_Bending	L1_L2_axial_rotation	L1_T12_Flex_Ext	L1_T12_Lat_Bending	L1_T12_axial_rotation	Abs_r3	Abs_r2	Abs_r1	Abs_t1	Abs_t2	neck_flexion	neck_bending	neck_rotation	arm_flex_r	arm_add_r	arm_rot_r	elbow_flex_r	pro_sup_r	wrist_flex_r	wrist_dev_r	arm_flex_l	arm_add_l	arm_rot_l	elbow_flex_l	pro_sup_l	wrist_flex_l	wrist_dev_l
      4.60000000	      3.01040693	     -1.23930479	   -179.19218563	      2.64934003	      0.89234105	      0.44475949	     10.50309032	     -3.02943882	    -13.54806103	     22.15308155	      0.38664421	     22.91284171	     -5.44128560	      0.00000000	      2.66298356	     -0.30464722	     -3.75355257	      7.92784893	      0.13836707	     13.10664503	    -13.74739958	      0.00000000	      0.00403580	     -0.22872957	      0.18142191	      0.00749489	     -0.30421033	      0.19276077	      0.00663042	     -0.55613308	      0.19276077	      0.00461252	     -0.55613308	      0.15874417	      0.00374764	     -0.46642534	      0.14740530	      0.00230606	     -0.35430210	      0.13606643	      0.02882732	     -2.58743465	      1.00901421	      0.00000000	      0.00000000	     -0.00000000	      0.00000000	      0.00000000	     -6.31515628	    -12.68326601	     24.50182325	     23.41951732	     57.03716119	      0.00000000	      5.00000014	     -9.79480377	    -12.52786468	     16.09160859	     22.07653321	     57.06607051	      0.00000000	      5.00000014
      4.63333333	      3.16007017	     -1.60197781	   -179.96078995	      2.64991117	      0.89256386	      0.44449633	     10.84088373	     -3.34182560	    -12.86178147	     22.31166215	      0.38941197	     23.04040122	     -5.17389488	      0.00000000	      2.86344793	      0.18433979	     -4.60285092	      7.88484197	      0.13761645	     12.49399562	    -14.81819212	      0.00000000	      0.00250688	     -0.26596469	      0.28682232	      0.00465552	     -0.35373304	      0.30474872	      0.00411855	     -0.64666655	      0.30474872	      0.00286511	     -0.64666655	      0.25096953	      0.00232789	     -0.54235520	      0.23304314	      0.00143243	     -0.41197931	      0.21511674	      0.01790637	     -3.00864578	      1.59521972	      0.00000000	      0.00000000	     -0.00000000	      0.00000000	      0.00000000	     -6.25592431	    -12.59594552	     24.08662710	     23.63077837	     56.46590861	      0.00000000	      5.00000014	     -9.92197599	    -12.56638691	     15.98129979	     22.32585184	     56.48875942	      0.00000000	      5.00000014
      4.66666667	      3.34589306	     -1.66266709	   -180.12340483	      2.65056081	      0.89287646	      0.44550628	     11.09482735	     -3.46557719	    -12.90727992	     22.37435956	      0.39050624	     22.97074358	     -5.11629105	      0.00000000	      3.24469422	      0.41094773	     -5.41909350	      7.94427462	      0.13865375	     12.47406001	    -15.03145260	      0.00000000	      0.00028254	     -0.26216867	      0.26647882	      0.00052471	     -0.34868433	      0.28313374	      0.00046419	     -0.63743690	      0.28313374	      0.00032292	     -0.63743690	      0.23316897	      0.00026237	     -0.53461435	      0.21651404	      0.00016144	     -0.40609927	      0.19985911	      0.00201817	     -2.96570440	      1.48207524	      0.00000000	      0.00000000	     -0.00000000	      0.00000000	      0.00000000	     -6.07816521	    -12.75564596	     23.99793328	     23.66966019	     56.27273719	      0.00000000	      5.00000014	     -9.98703906	    -12.40734751	     15.97587850	     22.42224069	     56.29720941	      0.00000000	      5.00000014
      4.70000000	      3.59072085	     -2.02673563	   -180.63201734	      2.65146647	      0.89341690	      0.44595847	     11.38159512	     -3.81772092	    -12.53800793	     22.19700471	      0.38741082	     22.78376215	     -4.62021553	      0.00000000	      3.83358172	      0.95058403	     -7.08100013	      8.18935371	      0.14293119	     11.51577825	    -15.83889415	      0.00000000	     -0.00152128	     -0.30070615	      0.27256576	     -0.00282516	     -0.39993918	      0.28960112	     -0.00249930	     -0.73113693	      0.28960112	     -0.00173867	     -0.73113693	      0.23849504	     -0.00141266	     -0.61319997	      0.22145968	     -0.00086926	     -0.46579382	      0.20442432	     -0.01086632	     -3.40164807	      1.51592899	      0.00000000	      0.00000000	     -0.00000000	      0.00000000	      0.00000000	     -5.68116135	    -12.71744550	     23.95816081	     23.51614744	     56.27193427	      0.00000000	      5.00000014	    -10.12107493	    -12.37541486	     15.89649778	     22.49982704	     56.25907982	      0.00000000	      5.00000014
